<svg width="28" height="34" viewBox="0 0 28 34" fill="none" xmlns="http://www.w3.org/2000/svg">
<path d="M13.9964 7.9751C10.0458 7.9751 6.77246 11.7952 6.77246 16.5536C6.77246 21.312 9.98939 25.1321 13.9964 25.1321C18.0035 25.1321 21.2204 21.2449 21.2204 16.5536C21.2204 11.8622 17.9471 7.9751 13.9964 7.9751ZM13.9964 22.0492C11.4568 22.0492 9.36858 19.5695 9.36858 16.5536C9.36858 13.5377 11.4568 11.058 13.9964 11.058C16.5361 11.058 18.6243 13.5377 18.6243 16.5536C18.6243 19.5695 16.5361 22.0492 13.9964 22.0492Z" fill="black"/>
<path d="M21.5024 9.71769C22.4063 9.71769 23.1391 8.84753 23.1391 7.77413C23.1391 6.70073 22.4063 5.83057 21.5024 5.83057C20.5985 5.83057 19.8657 6.70073 19.8657 7.77413C19.8657 8.84753 20.5985 9.71769 21.5024 9.71769Z" fill="black"/>
<path d="M25.7354 2.74779C24.2681 0.938271 22.1799 0 19.8095 0H8.18342C3.27337 0 0 3.88712 0 9.71781V23.4568C0 26.3386 0.790123 28.8183 2.37037 30.6279C3.89418 32.3704 5.92593 33.2416 8.23986 33.2416H19.7531C22.1799 33.2416 24.2116 32.3033 25.679 30.6279C27.2028 28.8854 27.9929 26.4056 27.9929 23.5238V9.71781C27.9929 6.903 27.2028 4.4903 25.7354 2.74779ZM25.5097 23.5238C25.5097 25.6014 24.8889 27.2769 23.873 28.4162C22.8571 29.5556 21.4462 30.1587 19.7531 30.1587H8.23986C6.54674 30.1587 5.1358 29.5556 4.11993 28.4162C3.10406 27.2099 2.59612 25.5344 2.59612 23.4568V9.71781C2.59612 7.70723 3.10406 6.03175 4.11993 4.8254C5.07937 3.68607 6.54674 3.08289 8.23986 3.08289H19.866C21.5591 3.08289 22.97 3.68607 23.9859 4.89242C24.9453 6.09877 25.5097 7.77425 25.5097 9.71781V23.5238Z" fill="black"/>
</svg>
